<?xml version="1.0" encoding="UTF-8"?>
<svg id="Calque_1" data-name="Calque 1" xmlns="http://www.w3.org/2000/svg" viewBox="0 0 278.22 331.37">
  <defs>
    <style>
      .cls-1 {
        fill: #000;
        stroke-width: 0px;
      }
    </style>
  </defs>
  <path class="cls-1" d="M95.58,239.65c-.21-2.97-.41-5.94-.66-8.9-.18-2.18-.35-4.36-.69-6.51-.3-1.89-.08-3.84-.69-5.69-.48-1.45-.94-2.91-1.43-4.36-.05-.15-.17-.29-.29-.41-1.06-1.07-2.25-2.05-3.16-3.24-.82-1.06-2.01-1.48-3-2.24-.27-.21-.56-.42-.88-.5-1.59-.39-3.17-.83-4.78-1.05-1.35-.19-2.75-.22-4.11-.12-.94.07-1.88.39-2.76.76-.63.26-1.13.81-1.72,1.19-1.66,1.05-2.83,2.56-3.82,4.21-.67,1.12-1.24,2.3-1.77,3.49-.35.79-.6,1.64-.77,2.5-.21,1.06-.28,2.15-.42,3.23-.1.76-.23,1.51-.34,2.27-.2,1.39-.52,2.78-.59,4.18-.13,2.78-.14,5.57-.14,8.36,0,1.5.16,2.99.21,4.49.07,1.75.05,3.51.19,5.26.16,2.09.43,4.16.68,6.24.11.96.16,1.94.46,2.84.54,1.62,1.21,3.2,1.89,4.77.25.57.62,1.12,1.05,1.58.89.96,1.76,1.97,2.8,2.74.83.61,1.89.91,2.85,1.34.29.12.58.24.89.31,1.41.32,2.82.72,4.25.88,1.12.12,2.29-.04,3.42-.18.77-.09,1.5-.4,2.27-.55,1.77-.35,3.43-.85,4.84-2.12,1.6-1.43,2.73-3.15,3.63-5.07,1.03-2.21,1.19-4.61,1.39-7,.23-2.76.37-5.52.67-8.26.11-1.02.56-1.99.43-3.06-.05-.45,0-.9,0-1.35.03,0,.06,0,.09-.01M81.91,250.06c-.17,1.24-.98,2.21-1.72,3.18-.09.13-.55.14-.72.03-.8-.53-1.36-1.19-1.44-2.26-.13-1.76-.44-3.5-.64-5.25-.1-.87-.14-1.75-.15-2.63-.02-2.02,0-4.04,0-5.72-.3-2.96.05-5.55.38-8.15.12-1,.02-2.02.07-3.03.06-1.09.1-2.18.29-3.25.17-.95.55-1.84,1.62-2.2.55-.18.94.08,1.07.52.3.97.6,1.97.71,2.97.28,2.5.48,5.02.65,7.53.14,2.12.2,4.24.26,6.36.07,2.25.19,4.51.13,6.76-.04,1.72-.27,3.44-.51,5.15"/>
  <path class="cls-1" d="M202.7,259.15c.6-1.39,1.06-2.83,1.2-4.36.2-2.21.59-4.41.72-6.63.16-2.74.19-5.49.21-8.24.02-3-.04-6-.06-9.01-.02-3.47-.07-6.94-.05-10.41.01-2.19.23-4.37.19-6.56-.04-1.97-.29-3.94-.47-5.91-.04-.42-1.09-1.32-1.51-1.33-1.54-.05-3.05.09-4.55.49-1.51.4-3.06.63-4.6.92-.56.11-1.27.79-1.32,1.38-.12,1.62-.28,3.24-.31,4.87-.02,1.15.21,2.3.23,3.45.04,2.87.04,5.74,0,8.61-.03,2.38-.15,4.77-.18,7.15-.03,2.96,0,5.92,0,8.88.04,0,.08,0,.12,0-.15,2.93-.25,5.86-.47,8.79-.06.76-.43,1.51-.75,2.23-.22.5-1.21.98-1.55.82-.73-.33-1.31-.9-1.51-1.65-.64-2.39-.79-4.85-.92-7.31-.05-1.05-.15-2.09-.2-3.14-.14-2.4-.38-4.79-.37-7.19.01-3.73.22-7.46.3-11.2.06-2.9.08-5.79.05-8.69-.02-1.88-.17-3.76-.27-5.64-.06-1.33-.78-2.01-2.11-2.02-1.12,0-2.24.05-3.36-.01-2.22-.12-4.41.07-6.5.84-.47.17-.97.69-1.13,1.16-.19.55-.07,1.23,0,1.85.19,1.63.52,3.23.44,4.89-.09,2.01,0,4.04-.02,6.06-.03,3.41-.11,6.82-.12,10.23,0,1.6.1,3.21.15,4.81.09,2.83.16,5.66.27,8.49.11,2.77.24,5.53.4,8.29.08,1.23.25,2.46.4,3.69.04.33.11.68.25.98.41.8.83,1.61,1.31,2.37.85,1.35,2.02,2.37,3.46,3.05.85.41,1.72.77,2.61,1.09,1,.35,2.01.73,3.04.91,2.48.42,4.99.51,7.5.34.3-.02.59-.1.89-.12,1.31-.07,2.25-.95,3.31-1.54,1.74-.97,3.06-2.44,4.28-3.99.41-.51.74-1.11,1-1.71"/>
  <path class="cls-1" d="M164.96,267.27c.5-.45.82-.99.76-1.69-.15-2.03-.28-4.06-.47-6.08-.12-1.27-.32-2.54-.5-3.81-.14-.98-.7-1.58-1.66-1.61-1.95-.06-3.9-.08-5.84-.07-1.7,0-3.39.07-5.08.13-.46.02-.58-.13-.58-.58-.01-1.35-.06-2.7-.13-4.05-.11-1.9-.25-3.8-.38-5.71-.03-.39.15-.5.52-.53,2.98-.27,5.97-.54,8.95-.84.94-.09,1.65-.85,1.64-1.8-.03-2.94-.08-5.88-.17-8.82-.01-.42-.21-.88-.45-1.23-.4-.55-2.16-.68-2.94-.44-.61.19-1.31.32-1.93.22-2-.33-3.98-.13-5.96.05-.3.03-.37-.02-.38-.31-.05-1.03-.16-2.05-.18-3.08-.03-1.74,0-3.47,0-5.21h-.07c0-.45-.01-.9,0-1.35.03-.81.19-.85,1-.8,1.06.06,2.19.17,3.18-.11,1.92-.53,3.86-.45,5.79-.62,1.28-.11,2.56-.18,3.83-.3.77-.08,1.2-.67,1.26-1.33.1-1.14.03-2.29-.01-3.44-.04-1.02-.2-2.04-.2-3.06,0-1.06.16-2.13.24-3.19.05-.71-.37-1.21-.91-1.5-.5-.28-1.1-.45-1.67-.51-.93-.1-1.89-.16-2.81-.06-2.18.24-4.34.61-6.52.89-.88.11-1.78.2-2.67.18-1.13-.03-2.25-.22-3.38-.26-1.11-.04-2.19.03-3.3.33-.97.26-2.04.16-3.07.18-1.2.02-2.41.11-3.46.72-.97.56-1.75,1.42-1.76,2.61-.02,2.25.07,4.51.12,6.76.03,1.29.02,2.58.1,3.86.08,1.34.29,2.68.36,4.02.07,1.33-.03,2.67.05,3.99.09,1.49.37,2.97.46,4.46.11,1.73,0,3.45.35,5.18.32,1.55.25,3.19.3,4.8.07,2.3.13,4.59.13,6.89,0,3.07-.1,6.14-.11,9.22,0,1.52.08,3.04.19,4.55.06.84.18,1.7.43,2.5.13.41.55.79.92,1.07,1.04.78,2.24.54,3.41.46,1.56-.1,3.12-.27,4.68-.28,1.84-.02,3.68.11,5.52.16.62.02,1.24-.02,1.86.02,1.7.11,3.42.4,5.12.33,1.73-.07,3.44-.48,5.16-.75.09-.02.17-.12.25-.19"/>
  <path class="cls-1" d="M237.22,268.56c.64-.05,1.27-.1,1.91-.15.66-.05,1.32-.14,1.98-.14.55,0,1.04-.04,1.48-.44.47-.43,1.19-.65,1.17-1.47-.02-.67.13-1.38-.06-1.99-.31-1-.81-1.94-1.27-2.89-.33-.66-.79-1.27-1.07-1.95-.56-1.37-1.09-2.77-1.55-4.18-.54-1.68-.99-3.4-1.48-5.1-.37-1.28-.75-2.55-1.13-3.83-.25-.85-.58-1.69-.74-2.55-.44-2.43-.94-4.85-2.05-7.09-.11-.23-.18-.57-.09-.79.57-1.42,1.12-2.85,1.79-4.23.71-1.46,1.6-2.83,2.29-4.29,1.09-2.32,2.09-4.69,3.09-7.05.74-1.74,1.43-3.5,2.1-5.27.76-1.99,1.07-4.07,1.06-6.2,0-.92-.58-1.49-1.47-1.47-1.91.04-3.82.11-5.73.12-.88,0-1.76-.12-2.63-.11-.83.02-1.69.24-2.09,1.03-.34.67-1.07,1.2-.9,2.09,0,.03-.03.08-.05.11-.69,1.36-1.16,2.78-1.52,4.26-.46,1.87-1.19,3.68-1.82,5.52-.07.2-.17.39-.28.58-.02.04-.21.04-.22.01-.18-.43-.36-.86-.52-1.3-.56-1.61-1.11-3.23-1.67-4.84-.34-.98-.67-1.98-1.05-2.95-.51-1.3-1.02-2.62-1.63-3.87-.17-.35-.69-.7-1.09-.75-1.18-.17-2.36-.12-3.57-.41-1.72-.4-3.58-.28-5.37-.23-.73.02-1.7.38-1.84,1.14-.18.93-.16,2.05.23,2.89.86,1.85,1.62,3.74,2.14,5.7.67,2.53,1.48,4.99,2.61,7.35.57,1.19,1.1,2.38,1.42,3.68.26,1.1.71,2.15,1.1,3.21.46,1.26.96,2.51,1.42,3.77.06.15.08.35.03.5-.58,1.74-.92,3.53-1.25,5.34-.31,1.71-.85,3.39-1.36,5.06-.55,1.8-1.18,3.56-1.81,5.34-.47,1.33-.99,2.64-1.45,3.98-.61,1.75-1.22,3.5-1.74,5.28-.42,1.44-1.02,2.85-.9,4.42.1,1.17.47,1.69,1.58,2.11,1.74.65,3.54.54,5.33.58.55.01,1.12-.07,1.66.01,1.25.19,2.26-.24,3.07-1.14.25-.28.4-.69.49-1.07.26-1,.41-2.04.71-3.03.43-1.45.98-2.87,1.44-4.32.41-1.27.79-2.57,1.18-3.85.02-.07.08-.12.12-.19,0,.06.01.13.03.19.48,1.59.96,3.17,1.45,4.75.09.28.24.54.34.82.3.81.58,1.62.87,2.43.08.22.23.41.28.63.15.62.22,1.26.4,1.87.29.97.69,1.92.96,2.89.26.91,1.13,1.72,2.07,1.67,1.19-.06,2.38-.2,3.56-.3,0,.03,0,.06,0,.1"/>
  <path class="cls-1" d="M130.82,208.44c-.03-.23-.15-.48-.3-.66-.39-.45-2.17-.58-2.85-.31-.82.32-1.65.64-2.5.81-.89.17-1.82.2-2.73.23-1.1.04-2.19,0-3.29.01-.47,0-1.35.65-1.46,1.1-.35,1.47-.76,2.93-1.01,4.42-.3,1.78-.86,3.42-1.97,4.86-.15.2-.18.29-.3-.02-.28-.73-.58-1.45-.88-2.17-.22-.53-.44-1.06-.69-1.58-.4-.82-.85-1.62-1.21-2.46-.67-1.55-1.22-3.15-1.94-4.68-.24-.52-.78-1.04-1.3-1.25-1.73-.69-3.54-.39-5.32-.14-1.39.2-2.79.42-4.19.5-1.46.09-2.14.67-2.11,2.1,0,.53.05,1.07.18,1.58.32,1.21.65,2.43,1.07,3.61.43,1.2,1,2.35,1.49,3.53.42,1.03.8,2.08,1.24,3.11.46,1.09,1.03,2.15,1.44,3.26.63,1.71,1.16,3.45,1.74,5.17.44,1.32.89,2.63,1.36,3.94.55,1.54,1.12,3.08,1.67,4.61.27.76.72,1.5.78,2.27.11,1.65.01,3.31.02,4.96,0,1.89-.02,3.78.06,5.67.1,2.41.29,4.82.43,7.24.03.6.04,1.2.04,1.81,0,1.22,0,2.44,0,3.66h.09c0,.92-.02,1.85.02,2.77,0,.27.13.59.31.8.63.77,1.6.93,2.46.93,1.59,0,3.18-.26,4.77-.41.49-.05.98-.07,1.46-.15.79-.14,1.57-.37,2.36-.45.85-.08,1.52-.68,1.52-1.54.02-3.36.03-6.71.05-10.06,0-.9.04-1.8.09-2.7.09-1.5.19-2.99.32-4.49.13-1.43.39-2.85.42-4.27.07-3.27.03-6.54.05-9.8,0-.34.05-.69.17-1,.65-1.71,1.33-3.41,1.99-5.12,1.29-3.35,2.55-6.71,3.86-10.05.61-1.57,1.26-3.12,1.92-4.67.67-1.6.87-3.26.68-4.98"/>
  <path class="cls-1" d="M56.76,230.21h-.05c0-1.4.03-2.8-.01-4.19-.03-.87-.55-9.22-.53-9.62.07-1.18.02-2.36.02-3.54-.01,0-.03,0-.04,0-.07-1.07-.13-2.14-.22-3.2-.09-1.04-.06-2.12-1.02-2.88-.35-.28-.64-.51-1.12-.48-2.57.16-5.13.31-7.7.42-.94.04-1.77.15-2.04,1.24-.01.05-.08.1-.13.14-.4.25-.45.63-.44,1.07.08,2.29.14,4.58.2,6.88,0,.39,0,.77,0,1.16,0,.39.09,4.49.01,6.08.04,1.72.1,3.43.13,5.14.02,1.12,0,2.24.03,3.36.06,2.92.15,5.83.19,8.75.02,1.43,0,2.88-.09,4.31-.08,1.19-.24,2.38-.45,3.56-.1.56-.45,1.08-.57,1.64-.23,1.08-.73,1.97-1.58,2.66-.51.42-1.07.8-1.66,1.1-1.1.56-2.12,1.28-3.45,1.31-.59.02-1.25.25-1.75.57-.41.26-.87.78-.9,1.22-.09,1.23,0,2.48.06,3.72.04,1.05.15,2.09.18,3.14.03.81-.05,1.63-.03,2.45.03,1.27.53,1.9,1.8,1.97,1.54.09,3.08.01,4.62,0,2.23-.01,4.34-.44,6.35-1.51,1.72-.91,3.43-1.83,4.83-3.17,1.35-1.29,2.68-2.64,3.2-4.55.35-1.29.79-2.54,1.12-3.83.23-.93.27-1.9.51-2.83.45-1.72.57-3.45.47-5.21-.06-1.18-.21-2.35-.21-3.53,0-1.37.15-2.73.18-4.1.02-1.17-.06-2.35-.06-3.52,0-.6.11-1.19.11-1.79.02-1.31,0-2.62,0-3.93"/>
  <path class="cls-1" d="M214.45,282.68c.11.02.21.07.31.1,1.12.39,2.24.16,3.34-.1.2-.05.47-.73.37-.86-.26-.36-.68-.7-1.1-.83-1.58-.52-3.23-.32-4.86-.34-.34,0-.8-.22-1-.49-1-1.38-2.31-2.12-4.02-2.12-1.19-.02-2.47,0-3.31.89-.99,1.05-2.03,2.09-2.3,3.67-.56,3.28-.62,6.5.7,9.61.71,1.67,1.68,3.24,3.71,3.48.88.1,1.8-.17,2.71-.27.31-.04.64-.16.91-.08,2.09.6,4.19.46,6.3.18.31-.04.68-.13.91-.34.25-.23.46-.6.49-.92.02-.2-.32-.6-.53-.63-.6-.09-1.25-.13-1.84,0-1.35.28-2.68.34-4.04.11-.33-.06-.56-.16-.28-.49,1.01-1.2,1.39-2.67,1.81-4.12.13-.43.36-.54.86-.48,1.24.15,2.5.23,3.75.24.33,0,.87-.28.95-.54.09-.3-.13-.83-.39-1.05-.27-.23-.75-.29-1.14-.3-.57-.02-1.15.09-1.72.08-1.52-.04-1.95-.51-1.95-1.99,0-.35-.06-.7-.11-1.05-.17-1.37.13-1.65,1.48-1.36M210.94,287.3c.07,2.04-.72,3.67-2.12,5.08-.29.29-.48.69-.79.93-1.09.85-1.72.6-2.86-.43-.79-.71-1.54-2.9-1.54-3.84-.08-.97-.1-1.76-.21-2.54-.26-1.74.05-3.37.93-4.88.82-1.41,2.94-1.87,4.41-1.13,1.22.62,1.56,1.73,1.97,2.86.48,1.3.17,2.62.21,3.94"/>
  <path class="cls-1" d="M68.91,294.45c-.17-.06-.34-.19-.46-.33-.91-1.03-1.82-2.08-2.72-3.12-.38-.43-.76-.87-1.1-1.33-.69-.93-.62-1.19.38-1.6.89-.36,1.45-1.08,1.52-1.96.14-1.65-.47-3.15-1.73-4.19-.98-.8-2.17-1.42-3.57-1.02-.2.06-.44-.04-.65-.01-.52.06-1.08.04-1.53.26-.32.16-.86.53-.31,1.1.12.12.12.39.13.59.06,1,.12,2,.13,3,.02,1.85,0,3.69,0,4.93.32,1.93.55,3.24.76,4.54.11.66.69,1.2,1.24,1.17.55-.04,1.07-.7.95-1.4-.25-1.49-.62-2.96-.85-4.45-.07-.44.15-.92.25-1.39.28.18.66.3.84.56.98,1.34,1.84,2.78,2.9,4.06.79.95,1.78,1.74,2.75,2.51.46.36,1.48-.03,1.7-.57.25-.65,0-1.1-.66-1.36M63.56,286.47c-.39.14-.77.31-1.17.39-1.25.24-1.25.23-1.25-1.4-.06-.43-.14-1.24-.3-2.04-.11-.56.12-.77.62-.79,1.29-.04,2.66.97,3,2.21.14.54-.34,1.43-.9,1.63"/>
  <path class="cls-1" d="M244.64,293.86c-.12-.06-.21-.17-.3-.27-1.07-1.14-2.15-2.26-3.19-3.43-.39-.43-.7-.95-.96-1.47-.07-.13.12-.57.27-.62,1.68-.53,2.83-1.98,2.85-4.21-.21-.43-.65-1.26-1.04-2.12-.55-1.2-1.61-1.67-2.75-2.12-.82-.32-1.76-.01-2.52-.7-.36-.33-1.21.39-1.2.97.04,2.07.07,4.14.11,6.21.04,1.62.09,3.24.15,4.86.05,1.3.13,2.6.17,3.9.02.7.55.71,1.01.75.57.05.99-.26,1.03-.81.04-.7-.04-1.41-.09-2.11-.08-.97-.2-1.94-.28-2.9-.01-.11.06-.23.09-.35.13.08.29.13.38.24.94,1.16,1.86,2.34,2.8,3.5.27.33.62.59.87.93.31.43.46,1.03.85,1.34.41.32,1.04.52,1.55.47.34-.04.78-.55.92-.94.19-.53-.25-.88-.72-1.13M237.82,285.73c.02-.22.04-.43.07-.75,0-1.09-.01-2.28.02-3.46,0-.13.23-.37.35-.37,1.27,0,2.89,1.79,2.8,3.06-.08,1.17-.83,1.96-2.25,2.36-.95.27-1.07.16-.98-.83"/>
  <path class="cls-1" d="M112.11,291.16c-.22-1.01-.03-2.02-.65-3.05-.73-1.2-.96-2.69-1.46-4.04-.36-.97-.76-1.91-1.21-2.84-.43-.9-1.33-1.04-1.9-.29-.43.56-.85,1.16-1.1,1.81-1.27,3.33-2.49,6.69-3.71,10.04-.33.89-.63,1.79-.99,2.84.17.2.34.62.59.67.33.07.93-.04,1.05-.26.44-.83.74-1.74,1.08-2.63.25-.65.47-1.32.73-1.97.04-.09.29-.2.38-.16,1.44.66,2.9.08,4.35.04.43-.01.58.07.69.45.36,1.17.73,2.34,1.12,3.51.22.63,1.33,1.14,1.94.9.14-.06.32-.27.32-.41,0-.34-.05-.69-.15-1.02-.35-1.2-.82-2.37-1.09-3.58M108.74,289.39c-.87.06-1.74.19-2.61.28-.76.08-.92-.13-.63-.82.55-1.3,1.09-2.61,1.65-3.91.09-.22.26-.41.39-.61.15.18.36.33.43.54.48,1.26.93,2.52,1.39,3.79.11.55-.09.7-.61.74"/>
  <path class="cls-1" d="M125.43,280.66c-.48.02-1.11.44-1.36.87-.44.76-.67,1.66-.93,2.52-.48,1.63-.9,3.28-1.37,4.91-.23.81-.49,1.62-.78,2.41-.04.12-.45.26-.49.21-.23-.26-.43-.56-.58-.87-.53-1.1-1.01-2.23-1.54-3.33-.42-.88-.85-1.75-1.33-2.6-.69-1.2-1.43-2.37-2.15-3.55-.07-.11-.19-.27-.29-.27-.44,0-.91-.03-1.31.1-.09.03-.11.7.03.98.68,1.27,1.45,2.49,2.14,3.75.9,1.64,1.75,3.31,2.62,4.98.15.29.28.59.39.89.47,1.24.83,2.53,1.46,3.68.26.47,1.08.77,1.69.87.44.07.8-1.09.67-1.77-.04-.2.04-.46.14-.66.12-.27.37-.49.45-.77.36-1.25.67-2.52,1.03-3.77.54-1.88,1.1-3.75,1.69-5.61.18-.59.47-1.14.71-1.71-.01-.69-.28-1.28-.88-1.25"/>
  <path class="cls-1" d="M230.63,281.7c-.02.57-.14,1.13-.14,1.7,0,1.37.24,2.78.04,4.11-.29,1.81-.68,3.64-1.64,5.27-.88,1.51-2.68,2.08-3.61.03-.44-.96-.87-1.96-1.06-2.98-.43-2.36-.72-4.74-1.05-7.02,0-.4.11-.77-.03-.98-.19-.31-.53-.6-.87-.72-.11-.04-.59.43-.61.68-.05.78,0,1.58.1,2.37.2,1.54.51,3.08.67,4.62.18,1.83.67,3.53,1.39,5.24,1.07,2.52,4.85,2.55,6.03.48.39-.69.79-1.37,1.17-2.06,1-1.82,1.48-3.79,1.63-5.86.12-1.62.28-3.24.39-4.86.02-.22-.08-.5-.23-.66-.54-.59-2.13-.36-2.17.63"/>
  <path class="cls-1" d="M137.53,280.68c-1.71-.73-3.49-.31-5.25-.27-.34,0-.7.14-1.01.3-.71.36-1.42.75-1.38,1.71.04.98.12,1.95.15,2.92.02.76,0,1.52,0,2.27.02,1.46,0,2.91.1,4.36.07,1.06.26,2.12.48,3.16.14.67.61.98,1.35.88.33-.05.7.05,1.04.15,1.46.43,2.89.63,4.2-.39.25-.2.42-.5.63-.75-.39-.25-.53-.94-1.22-.68-.24.09-.53.09-.79.08-.81-.05-1.65-.29-2.41-.14-.83.17-1.03-.22-1.08-.8-.13-1.41-.19-2.83-.26-4.24-.02-.48.02-.94.74-.59.19.09.48,0,.72-.02,1.05-.12,2.09-.22,3.14-.38.25-.04.48-.29.72-.44-.23-.29-.41-.74-.71-.83-1.06-.35-2.14-.56-3.23-.02-.3.15-.7.16-1.05.15-.15,0-.4-.2-.42-.33-.08-.92-.11-1.85-.15-2.78-.01,0-.03,0-.04,0,0-.22,0-.44,0-.66-.03-.9.46-1.31,1.38-1.14.19.03.37.13.56.13,1.32-.02,2.64-.05,3.96-.12.22-.01.5-.23.6-.43.08-.16.02-.5-.1-.66-.15-.2-.42-.34-.66-.44"/>
  <path class="cls-1" d="M53.41,294.37c-.74.07-1.49.2-2.21.4-1.25.34-2.2-.13-2.57-1.38-.15-.52-.29-1.06-.36-1.59-.16-1.17.12-1.44,1.26-1.63.83-.14,1.65-.39,2.41-.73.25-.11.47-.67.42-.99-.03-.22-.54-.53-.83-.52-.67.02-1.35.19-2.02.35-.84.2-1.22-.02-1.41-.83-.16-.66-.35-1.31-.55-1.96-.31-.95-.11-1.35.89-1.42,1.11-.07,2.23-.01,3.35-.01h0c.27.01.56.06.82,0,.27-.06.66-.18.73-.37.1-.26.05-.79-.12-.9-.51-.33-1.13-.73-1.68-.7-1.83.12-3.66.41-5.48.64-.7.09-.97.55-.73,1.22.18.49.31,1,.45,1.5.69,2.45.39,4.97.56,7.45.06.9.09,2.02.62,2.62,1.79,2.06,4.83,1.94,6.96.32.25-.19.32-.73.29-1.09-.01-.15-.52-.38-.79-.36"/>
  <path class="cls-1" d="M81.09,283.18c-.92.34-1.53,1.04-1.78,1.98-.35,1.34-.58,2.72-.97,4.04-.43,1.44-.99,2.85-1.5,4.27-.07.18-.24.33-.37.49-.15-.17-.36-.32-.45-.52-.35-.85-.66-1.72-1.01-2.56-1.06-2.54-2.1-5.08-3.23-7.59-.13-.3-.73-.5-1.12-.51-.15,0-.54.7-.45.96.54,1.62,1.17,3.2,1.78,4.8.5,1.29.99,2.6,1.53,3.87.77,1.81,1.15,3.86,3.11,4.96.42.24.7.24.88-.1.46-.83.91-1.68,1.23-2.57.34-.96.45-2,.76-2.97.6-1.89,1.27-3.76,1.88-5.65.23-.73.38-1.48.57-2.23.05-.65-.32-.86-.87-.66"/>
  <path class="cls-1" d="M179.54,294.12c-1.25.05-2.5.08-3.75.19-.5.05-.66-.09-.63-.55.11-1.31.21-2.63.37-3.94.02-.17.38-.42.6-.43,1.14-.04,2.28.01,3.43-.01.61-.01,1.05-.69.71-1.12-.22-.28-.65-.53-1.01-.57-.92-.09-1.86-.07-2.79-.07-.48,0-.91-.1-.94-.67-.04-.71,0-1.42,0-2.12h-.07c.02-.41.05-.82.06-1.23.05-1.14.29-1.25,1.37-.88.62.21,1.31.26,1.98.29.66.03,1.12-.29,1.1-1.02-.03-.74-.55-.93-1.18-.98-.39-.03-.78-.08-1.17-.16-1.02-.19-2.04-.47-3.07-.53-.32-.02-.96.59-.96.9.06,1.9-.29,3.82.17,5.72.12.48-.08,1.04-.08,1.56,0,.84.08,1.67.05,2.51-.03.82-.18,1.65-.24,2.47-.04.47-.08.97.02,1.43.11.44.33,1.11.64,1.21.77.23,1.63.3,2.44.23,1.05-.09,2.07-.42,3.12-.56.48-.06.87-.18.81-.68-.06-.5-.31-1.01-.98-.99"/>
  <path class="cls-1" d="M149.83,291.1c-.5.36-.89.91-1.23,1.44-.54.84-.88,1.86-2.1,1.96-.54.04-1.09.16-1.63.13-.38-.03-.94-.15-1.09-.41-.41-.72-.77-1.51-.91-2.31-.19-1.15-.27-2.33-.2-3.49.08-1.34.25-2.71.61-4,.45-1.63,1.73-2.04,2.94-1.09.5.39,1.05.54,1.46.06.5-.58,0-1.14-.39-1.5-1.33-1.25-4.02-.93-5.04.57-.31.47-.56,1.01-.7,1.55-.28,1.09-.45,2.21-.69,3.32-.52,2.43-.25,4.8.5,7.14.08.24.26.49.45.66,1.2,1.01,2.55,1.69,4.17,1.66.03.08.05.16.08.24.77-.29,1.57-.52,2.3-.89,1.75-.87,2.07-2.65,2.52-4.29.16-.58-.57-1.09-1.07-.73"/>
  <path class="cls-1" d="M37.47,287.21c-.86-.26-1.2-.68-1.29-1.53-.2-1.82.89-3,2.7-2.85.19.02.4.09.57.03.2-.07.43-.22.5-.39.06-.14-.04-.43-.16-.56-.68-.74-2.94-.89-3.81-.13-.9.78-1.29,1.75-1.57,2.79-.69,2.56.24,3.64,1.98,4.43,2.1.95,2.66,2.48,2.83,3.98-.15.49-.16,1.24-.47,1.41-1.45.77-2.81,1.9-4.68,1.47-.36-.09-.82.25-1.23.39.2.36.31.91.62,1.06.86.41,1.68.91,2.77.71,1.2-.22,2.17-.79,3.21-1.34,2.26-1.2,2.45-3.28,1.76-5.25-.65-1.85-1.64-3.59-3.71-4.21"/>
  <path class="cls-1" d="M198.6,292.48c-.25.06-.47.26-.71.39-1.1.58-2.17,1.24-3.33,1.7-1.11.44-2.32-.05-2.76-.94-.78-1.61-1.23-3.31-1.35-5.15.28-1.3.4-2.66.89-3.87.44-1.09.81-2.52,2.45-2.5.6,0,1.21.2,1.81.29.44.07.92.51,1.31-.07.37-.54.18-.95-.26-1.42-.55-.59-1.13-.49-1.79-.4-.81.12-1.73-.06-2.43.27-.76.35-1.5,1.02-1.93,1.74-.62,1.06-1.02,2.27-1.37,3.45-.27.91-.45,1.89-.41,2.82.06,1.2.44,2.38.57,3.58.13,1.22.68,2.22,1.53,3,2.07,1.94,5.37,1.93,7.65-.54.41-.44.67-1.04.93-1.59.08-.18.05-.56-.08-.65-.17-.13-.5-.14-.73-.09"/>
  <path class="cls-1" d="M168.14,293.85c-.73,0-1.45.26-2.18.24-.61-.02-1.52-.09-1.75-.46-.36-.59-.37-1.47-.32-2.22.12-1.73.43-3.44.53-5.17.09-1.68.02-3.36,0-5.05,0-.52-.5-.85-1.01-.67-1.05.38-1.55,1.19-1.12,2.39.35.99.17,1.92.11,2.87-.05.92-.17,1.83-.24,2.75-.11,1.64-.22,3.28-.29,4.92-.03.57-.06,1.16.06,1.7.21.88.75,1.09,1.69,1.06,1.07-.04,2.16-.05,3.2.14,1.19.22,2.23-.46,2.21-1.74.15-.71-.46-.75-.91-.75"/>
  <path class="cls-1" d="M89.4,288.96c-.04-.31-.21-.62-.19-.93.07-1.34.19-2.68.27-4.03.03-.56-.65-1.27-1.21-1.21-.6.06-.91.47-.91,1.08,0,.35.04.7.04,1.06,0,1.57-.05,3.15.03,4.71.09,1.92.3,3.83.46,5.75-.04,0-.08.01-.12.02.06.26.05.58.2.78.28.37.66.66,1,.98.35-.37.92-.7,1.01-1.13.15-.69,0-1.45-.06-2.17-.15-1.63-.32-3.27-.5-4.9"/>
  <path class="cls-1" d="M88.38,277.74c.65.02,1.52-.71,1.33-1.28-.13-.4-.68-.8-1.13-.92-.57-.16-1.37.5-1.4.97-.04.7.46,1.21,1.19,1.23"/>
  <path class="cls-1" d="M180.78,186.15c2.12-.06,4.26.04,6.38-.1,1.62-.1,3.25-.33,4.81-.74,2.54-.67,5.05-1.46,7.52-2.37,2.56-.94,5.03-2.1,7.56-3.1,1.77-.7,3.56-1.32,5.36-1.93,1.22-.41,2.49-.66,3.68-1.14,1.67-.68,3.3-1.49,4.91-2.31,1.1-.56,2.17-1.18,3.17-1.88.72-.5,1.25-1.27,1.97-1.77,1.48-1.01,3.02-1.9,3.92-3.55.42-.78.83-1.63,1.47-2.2,1.76-1.56,1.09-3.41.62-5.12-.29-1.05-1.18-1.92-1.71-2.91-.93-1.77-2.41-2.97-4.19-3.64-3.06-1.17-6.21-2.11-9.33-3.12-.97-.32-1.96-.59-2.96-.8-1.66-.33-3.33-.57-4.99-.89-1-.19-1.98-.6-2.98-.67-2.64-.19-5.29-.24-7.93-.36v-.06c-.89,0-1.78,0-2.67,0-.43,0-.68-.12-.43-.65.5-1.06.96-2.13,1.42-3.21.29-.67.59-1.35.78-2.05.23-.87-.62-1.79-1.35-1.5-.7.28-1.36.65-2.04.97-.2.09-.41.14-.62.21,0-.2,0-.4,0-.6-.01-.38.06-.78-.06-1.12-.49-1.34-1.12-2.63-1.54-3.98-.48-1.57-1.56-2.62-2.85-3.41-1.25-.77-2.66-1.29-4.03-1.87-.47-.2-.64-.33-.35-.87,1.25-2.33,1.53-4.88,1.57-7.47.04-2.01.2-4.05-.06-6.03-.36-2.8-3.06-4.11-5.5-3.11-.37.15-.76.24-1.15.36-.06-.39-.13-.78-.19-1.18,0-.06.02-.13.03-.19.29-2.2.5-4.38-1.55-5.98-.05-.04-.08-.1-.11-.16-1.63-3.4-4.88-3.94-8.07-4.52-.72-.13-1.52.17-2.27.14-.87-.03-1.73-.25-2.6-.32-.14-.01-.39-.01-.7,0l-1.29.07c1.2-2.27,2.18-4.66,2.96-7.12.81-2.56,1.46-5.2,1.39-7.95-.02-.98.32-1.17,1.46-.91.99.22,1.88-.04,2.54-.72,1.56-1.63,2.64-3.62,2.81-5.83.26-3.23.38-6.46,0-9.73-.35-3-1.79-5.11-4.06-6.8,0-.02.02-.04.03-.06.48-1.01.66-1.89.73-2.34.01-.07.06-.33.08-.68.07-1.3.3-2.67-.29-3.84-1.01-2.02-1.54-4.16-2.16-6.3-.21-.74-.49-1.54-.99-2.09-1.16-1.29-2.36-2.53-3.13-4.12-.15-.32-.37-.6-.55-.9-.49-.83-1.07-1.57-1.96-2-1.08-.51-2.15-1.05-3.25-1.51-1.82-.77-3.69-1.45-5.49-2.25-2.12-.94-4.3-1.7-6.58-2.07-1.68-.28-3.4-.39-5.11-.49-.87-.05-1.76.08-2.64.13-1.07.06-2.14.19-3.21.18-2.95-.04-5.85.28-8.66,1.21-2.91.96-5.31,2.79-7.7,4.63-.96.75-1.82,1.64-2.83,2.3-1.48.97-2.86,2.04-4.03,3.36-.54.61-.87,1.43-1.46,1.99-.85.82-1.01,1.82-1.03,2.87-.01.73-.25,1.28-.79,1.72-.29.23-.58.46-.87.7-.89.71-1.56,1.59-1.96,2.66-1.15,3.08-2.32,6.16-3.41,9.27-.35.99-.41,2.05-.67,3.06-.1.39-.28,1.05-.09,1.82.09.35.23.63.35.83-.36.17-.7.45-.96.75-1.28,1.45-2.28,3.01-2.9,4.92-.84,2.62-.95,5.21-.54,7.86.28,1.8.94,3.41,2.06,4.94,1.3,1.78,3.56,2.82,5.67,2.12.21-.07.68.1.74.27.29.76.43,1.58.71,2.34.43,1.14.92,2.25,1.4,3.37.81,1.88,1.61,3.77,2.45,5.64.55,1.21,1.17,2.4,1.77,3.59.16.32.3.67.52.94.97,1.22,1.97,2.41,2.95,3.61.08.09.12.21.2.3.36.39.68.86,1.11,1.15,1.35.94,2.7,1.89,4.14,2.69,1.46.82,2.96,1.74,4.56,2.14,2.23.55,4.41,1.48,6.81,1.36.99-.05,2.01.37,2.99.28,2.01-.2,4.01-.59,6-.91.77-.13,1.55-.26,2.29-.48,1.19-.36,2.42-.82,3.54-1.35h0c.26-.12.52-.27.78-.4l.03.28c.02.16.03.28.03.34.14,1.65.34,3.29.51,4.94.1.91.19,1.82.3,2.73.16,1.42.27,2.84.49,4.25.22,1.43.91,2.81.44,4.33-.09.27.06.63.13.94.16.72.43,1.44.48,2.17.21,2.87.56,5.72,1.48,8.46.17.51,0,.63-.47.62-3.37-.06-6.75-.13-10.12-.17-.86-.01-1.71.07-2.57.05-1.92-.03-3.83-.16-5.75-.14-2.35.03-4.7.17-7.05.27-2.58.11-5.16.24-7.74.34-.54.02-1.07-.03-1.61-.05.18-.52.36-1.04.54-1.56.03-.09.09-.18.11-.27.49-2.6,1.58-5.12,1.23-7.83-.09-.68-.55-1.5-1.1-1.91-1.13-.86-2.4-1.57-3.68-2.2-1.04-.51-2.16-1.01-3.3-1.15-2.23-.29-4.49-.43-6.75-.46-2.22-.02-4.46-.26-6.65.37-.84.24-1.73.33-2.57.58-1.58.47-3.15.98-4.7,1.53-1.95.7-3.62,1.85-5.07,3.32-.47.47-1.05.85-1.45,1.38-.46.6-.81.49-1.23.04-.76-.8-1.49-1.63-2.27-2.41-.31-.3-.71-.55-1.11-.72-1.89-.83-3.66-.57-5.48.4-1.69.9-2.85,2.31-3.01,4.02-.4,4.26,1.74,7.98,6.46,8.77.93.16,1.94-.07,2.9-.22.62-.1,1.19-.44,1.81-.55.32-.06.84.05.99.28.47.68.79,1.46,1.19,2.18.26.47.18.6-.38.71-4.1.75-8.19,1.53-12.27,2.33-4.74.94-9.25,2.46-13.23,5.31-2.69,1.93-4.92,4.24-6.02,7.45-.56,1.63-.24,4.33,1.29,5.53,2.47,1.93,4.9,3.87,7.91,5.01,3.48,1.31,6.85,2.88,10.3,4.28.9.37,1.92.46,2.83.8,1.04.39,2.01,1.01,3.06,1.35,2.49.81,5,1.54,7.51,2.24,2.23.62,4.48,1.18,6.73,1.73,2.25.56,4.5,1.17,6.79,1.57,2.31.41,4.6,1.07,6.99.96.94-.04,1.89.07,2.82.2,1.19.17,2.37.46,3.56.63.97.14,1.95.17,2.92.24,2.27.16,4.54.42,6.82.43,1.95,0,3.91-.3,5.87-.43,1.23-.08,2.47-.1,3.71-.16,1.8-.09,3.61-.22,5.41-.3,1.75-.08,3.5-.11,5.24-.17,1.4-.05,2.8-.13,4.2-.19,2.41-.09,4.82-.15,7.22-.24,2.06-.08,4.13-.18,6.19-.28,1.61-.08,3.22-.16,4.83-.23.92-.04,1.83-.04,2.75-.1,1.57-.1,3.14-.25,4.71-.33,1.1-.05,2.21,0,3.31-.04,2.03-.07,4.06-.21,6.09-.26M81.06,143.09c-.96.49-1.91,1.09-2.93,1.3-1.82.37-3.93-.67-4.83-2.48-.5-.99-.85-2.06-1.27-3.09.08-.04.16-.07.25-.1-.08-1.78.66-2.77,2.65-3.59,2.67-1.09,5.45.78,5.65,3.67.08,1.22.5,2.41.71,3.61.04.21-.07.6-.22.67M191.1,146.05c.08-.21.6-.31.92-.33.16-.02.34.24.53.38-.19.38-.33.63-.44.89-.53,1.25-1.04,2.51-1.58,3.76-.41.96-.88,1.9-1.24,2.88-.74,1.96-1.42,3.95-2.14,5.92-.07.2-.19.42-.34.57-.25.26-.55.47-.83.7.08-.29.15-.58.26-.86.4-1.07.88-2.12,1.23-3.2.58-1.77,1.05-3.58,1.64-5.35.6-1.81,1.27-3.59,1.98-5.35M173.01,155.42c.58,1.96.53,4.08,1.59,5.92.1.18-.03.5-.05.76-.3-.18-.74-.3-.87-.56-.56-1.14-1.07-2.32-1.54-3.5-1.4-3.58-2.76-7.18-4.15-10.77-.34-.89-.71-1.77-1.06-2.66-.05-.12-.18-.25-.16-.34.11-.45.25-.9.38-1.34.26.24.49.52.78.72.66.44,1.36.84,2.04,1.26.26.16.66.29.73.51.57,1.97,1.08,3.96,1.61,5.94-.07.02-.13.03-.2.04.29,1.34.51,2.7.89,4.01M178.78,145.84c-.23,2.63-.46,5.25-.7,7.87-.19,2.05-.4,4.09-.6,6.14-.03.25-.1.5-.19.74-.05.13-.17.24-.26.35-.06-.1-.1-.22-.17-.31-1.07-1.44-1.23-3.15-1.56-4.84-.57-2.96-1.26-5.9-1.96-8.83-.21-.88-.64-1.71-.91-2.58-.09-.29,0-.63.02-.95.28.15.62.26.84.47.29.28.44.71.73.99,1.29,1.2,2.6,1.04,3.68-.38.2-.26.46-.48.7-.72.09.35.21.7.26,1.06.04.31,0,.64,0,.96.04,0,.08,0,.12.01M168.4,154.58c.24.62.72,1.14,1.08,1.72.14.24.23.5.35.75-.1.04-.2.07-.3.11.36.94.72,1.88,1.08,2.82.12.32.3.63.36.96.05.25-.03.53-.05.8-.29-.16-.69-.25-.86-.5-1.73-2.51-3.05-5.23-4.04-8.13-.58-1.72-1.41-3.35-2.06-5.05-.44-1.15-.79-2.33-1.16-3.51-.06-.2,0-.43,0-.64.19.09.39.16.57.26.49.27.97.54,1.46.82.07.04.19.07.22.13.43,1.09.85,2.17,1.27,3.27.15.38.25.77.38,1.16.56,1.68,1.08,3.37,1.71,5.03M165.67,157.33c.53,1.23.99,2.49,1.48,3.74.04.11.05.24.04.36-.01.4-.21.98-.02,1.15.51.48,1.14.96,1.8,1.13,1.18.31,2.41.44,3.63.56.85.08,1.72.02,2.58.02,0-.04.01-.07.02-.11.87.12,1.74.24,2.61.35.12.02.28.04.38-.02,1.91-.99,4.04-.2,6-.79,1.08-.32,2.15-.65,3.23-.97.21-.06.43-.18.65-.17.63.03.74-.35.91-.86.55-1.65,1.2-3.27,1.83-4.89.04-.09.3-.21.36-.17,1.01.71,2.09.18,3.08.06,1.68-.2,3.04.36,4.34,1.27.5.35,1.17.61,1.47,1.09,1.15,1.89,1.68,4.45-1.32,6.55-2.76,1.93-5.66,3.56-8.97,4.38-1.94.48-3.83,1.13-5.76,1.65-.64.17-1.32.23-1.99.25-2.38.06-4.76.04-7.14.15-1.23.05-2.45.32-3.67.49-.19.03-.39.07-.57.03-2.96-.67-6.02-.59-8.99-1.48-2.37-.71-4.56-1.6-6.46-3.11-.74-.59-1.39-1.46-1.71-2.33-.2-.55.16-1.46.54-2.02,1.53-2.24,3.68-3.75,6.14-4.85,1.02-.46,2.01-.97,3.02-1.44.57-.26,1.15-.55,1.76-.67.2-.04.61.36.74.65M180.47,148.39c.08-.82.13-1.64.25-2.45.02-.17.28-.42.45-.43.91-.07,1.57-.38,1.88-1.33.21-.63.63-.56,1.09-.12,1.18,1.13.74,2.37.33,3.64-.87,2.65-1.75,5.3-2.58,7.96-.57,1.83-1.06,3.68-1.61,5.51-.05.17-.28.29-.42.44-.12-.17-.32-.33-.35-.52-.06-.4-.08-.82-.04-1.23.13-1.64.27-3.28.42-4.93.18-1.96.39-3.91.58-5.87.02-.22.02-.45.03-.67,0,0-.02,0-.02,0M185.71,147.97c.05-.2.19-.38.31-.57.23-.37.66-.73.67-1.09.01-1.76,1.86-2.02,2.53-3.22.04-.08.42-.09.5,0,.13.14.23.42.18.58-.81,2.41-1.67,4.8-2.49,7.21-.32.94-.55,1.9-.85,2.84-.42,1.32-.81,2.65-1.31,3.95-.4,1.03-.91,2.03-1.44,3.01-.23.42-.62.75-.94,1.12-.12-.02-.24-.03-.36-.04-.09-.26-.3-.56-.24-.79.46-1.82.99-3.62,1.47-5.43.67-2.52,1.31-5.04,1.97-7.56M177.76,123.77c.19-1.67.32-3.35.47-5.03.02-.19-.03-.48.07-.54,1.14-.66,1.13-2.11,2.03-2.9.39-.35.92-.72,1.4-.74.72-.03,1.36.36,1.53,1.19.16.75.3,1.5.45,2.25-.04,0-.08,0-.12,0,0,1.46.14,2.94-.03,4.38-.25,2.1-.72,4.17-1.12,6.24-.03.17-.19.33-.31.47-.14.15-.31.27-.46.4-.07-.19-.22-.39-.2-.57.16-1.64-.7-2.86-1.72-3.95-.29-.32-.91-.39-1.39-.47-.5-.07-.63-.24-.58-.74M179.38,131.89c1.55-.2,3.01.14,4.44.72.8.32,1.68.43,2.45.79,1.77.81,3.09,2.07,3.63,4.02.06.22.16.42.25.63.4.92.31,1-.66,1.21-.38.08-.75.43-1.04.74-.63.67-1.18,1.41-1.8,2.09-.49.54-.95.43-1.3-.2-.12-.22-.22-.46-.34-.69-.7-1.45-1.81-1.53-2.77-.21-1.03,1.43-1.27,1.4-2.15-.21-.18-.32-.43-.66-.74-.85-1.03-.64-1.19-.32-1.98.94-.39.62-.84,1.27-1.42,1.7-.66.5-.89-.36-1.21-.7-.41-.43-.65-1.02-1-1.51-.6-.82-1.64-.8-2.25.02-.36.48-.7.98-1.06,1.46-.34.45-.71.52-1.08.01-.39-.54-.83-1.06-1.18-1.62-.61-.98-1.63-1.01-2.25-.02-.12.19-.15.43-.28.61-.11.16-.29.28-.44.42-.04-.17-.11-.34-.12-.51-.15-2.29.52-4.13,2.56-5.47,1.9-1.25,3.9-2.1,6.13-2.47.89-.15,1.74-.51,2.61-.78.02.08.04.16.07.24.97-.12,1.94-.25,2.91-.37M154.31,108.28c-1.34.51-2.39,1.25-3.52,2.01-.52.35-.81.19-.84-.48-.1-2.03.99-3.54,3.16-4.46,1.74-.74,3.51-1.32,5.32-1.72l2.74-.45c1.07-.12,2.15-.18,3.25-.16,2.84.03,5.7.15,8.37,1.18.84.32,1.51,1.24,2.09,2.02.35.47-.2.43-.51.37-1.09-.22-2.19-.39-3.25-.68-3.3-.93-6.61-.52-9.86.11-.96.19-1.9.47-2.84.77l-4.11,1.49ZM145.41,114.21c-3.08.99-6.29,1.62-9.55,1.77-1.09.05-2.19.08-3.28.1-.24,0-.48-.08-.72-.13-.48-.1-.96-.2-1.44-.32-1.12-.27-2.25-.49-3.34-.84-2.29-.74-4.32-2-6.34-3.28-2.12-1.34-3.99-2.89-5.19-5.13-1.28-2.37-2.53-4.77-3.76-7.17-.69-1.34-1.4-2.69-1.93-4.1-.7-1.86-1.23-3.78-1.85-5.67-.4-1.21-.9-1.34-2.14-1.01-1.28.34-2.68.72-3.83-.36-1.19-1.13-1.95-2.48-2.33-4.15-.53-2.33-.55-4.69-.12-6.95.38-1.94,1.23-3.89,3.09-5.03.39-.24.92-.46,1.38-.51.04.12.07.24.1.37.46,2.09.74,4.21,1.13,6.32.12.62.31,1.24.52,1.84.17.46.39,1.01,1,.92.63-.1.7-.69.72-1.21.05-1.03.06-2.06.1-3.09.08-2.33.17-4.66,1.02-6.88.55-1.44,1.02-2.92,1.51-4.38.29-.86.55-1.73.83-2.59.58-1.79,1.3-3.52,2.42-5.06.27-.36.53-.75.69-1.17.56-1.5,1.79-2.27,3.12-2.92,2.83-1.41,5.83-2.27,8.94-2.79,4.37-.73,8.78-.88,13.19-.87,1.22.06,2.36.23,3.24.6,2.26.96,4.85.1,7.24.1,1.37,0,2.26,1.56,4.17,2.51,1.48.73,5.11,1.06,6.37,2.07,1.26,1.01.15,2.7,1.16,4.02.19.24.69,1.27,1.07,2.68.72,2.66-.12,3.13.5,5.66.3,1.23.71,2,1.03,2.69,0,0,0,0,0,0,.31.65.55,1.21.55,2,0,.73.14,1.09.41,1.8.13.34.32.72.69.86.12.04.25.06.41.03.6-.1.9-.63.97-1.16.11-.75.11-1.52.08-2.27-.08-1.81-.28-3.63-.27-5.44,0-.61.23-1.27.52-1.85.44-.16.97-.07,1.52.32.52.36,1.09.81,1.34,1.36.49,1.1.78,2.3,1.15,3.46.1.32.29.64.27.95-.1,1.63-.26,3.27-.4,4.9.21,2.04-.15,3.98-1.01,5.83-.86,1.84-1.82,2.02-3.26.64-.29-.28-.92-.46-1.27-.34-.4.15-.87.64-.96,1.05-.2.99-.21,2.01-.25,3.03-.02.61.14,1.25.05,1.84-.2,1.24-.53,2.46-.76,3.69-.2,1.02-.19,2.09-.52,3.06-.44,1.29-1.13,2.49-1.7,3.74-.55,1.19-1.14,2.36-1.77,3.5-.02,0-.04,0-.06,0-2.86.61-5.7,1.33-8.31,2.67-2.13,1.1-3.55,2.86-3.75,5.38-.06.79-.2,1.63-.03,2.38,0,0,.07.65.15,1.43-.13.08-.26.16-.4.23h0c-.69.37-1.4.64-2.13.87M151.51,127.97c-.21-1.09-.21-2.12-.22-3.21,0-1.51-.39-3.03-.55-4.54-.19-1.81-.32-3.62-.46-5.43-.04-.63.27-.71.77-.41,2.6,1.57,5.51,2.14,8.46,2.25,2.74.09,5.48-.1,8.15-.99,2.14-.72,4.38-1.12,6.56-1.69.43-.11.83-.34,1.24-.5.89-.33,1.25-.02,1.1.97-.24,1.51-.52,3.02-.71,4.54-.19,1.48-.29,2.97-.42,4.46-.05.59-.15,1.12-.72,1.45-1.62.95-1.72,2.5-1.35,4.19.19.83.47,1.36-.83,1.58-2.95.51-5.32,2.29-7.71,3.96-.16.11-.34.24-.4.41-.61,1.69-1.85,3.16-1.6,5.15.12.93-.44,1.18-1.26.72-.27-.15-.79-.38-.84-.32-.25.35-.58.8-.52,1.17.14.9.47,1.77.73,2.64.24.81.43,1.64.73,2.43.44,1.17.93,2.32,1.45,3.46.44.99.14,1.5-.96,1.46-1.46,0-2.94.11-4.39-.04-.81-.08-1.59-.56-2.37-.9-.17-.07-.38-.37-.35-.52.36-1.93-.62-3.64-.87-5.47-.26-1.86-.68-3.69-1.02-5.53-.27-1.44-.56-2.87-.76-4.32-.32-2.32-.45-4.68-.9-6.98M152.66,148.74c0,1.19.22,2.43.58,3.57.15.46.9.94,1.44,1.03,2.45.4,4.92.66,7.39.97,0-.05.01-.1.02-.15.64,0,1.28-.04,1.92.02.2.02.43.3.51.51.04.09-.24.38-.42.47-1.82.87-3.65,1.7-5.46,2.59-.85.42-1.6,1.13-2.49,1.35-.84.22-1.86.15-2.7-.1-1.79-.53-3.54-1.21-5.28-1.91-1.92-.77-3.33-2.75-3.12-4.7.11-.92.69-1.92,1.33-2.62,1.11-1.2,2.57-1.96,4.14-2.44,1.44-.44,2.14-.29,2.13,1.41M85.2,136.91c1.08-.94,2.24-1.79,3.44-2.57.76-.49,1.63-.85,2.49-1.15,1.53-.53,3.08-1.03,4.65-1.44,1.41-.37,2.86-.6,4.04-.84,2.03,0,3.82-.12,5.59.03,2.18.19,4.35.56,6.5.93.37.07.95.51.96.8.04.9.67,1.17,1.26,1.53.19.12.42.21.55.37.17.22.25.5.37.75-.26.06-.53.19-.78.18-2.92-.14-5.83-.44-8.75-.42-3,.01-6.03,0-8.98.8-.55.15-1.14.2-1.7.2-2.88,0-5.49,1.02-8.14,1.96-.57.2-1.12.43-1.7.6-.12.04-.43-.19-.42-.21.18-.52.25-1.2.62-1.52M84.23,144.32c.1-.81.78-.99,1.62-.56.76.39,1.5.87,2.31,1.12,1.27.4,2.58.8,3.9.9,2.95.24,5.92.29,8.88.42,2.32.1,4.56-.38,6.71-1.16,2.52-.92,5.2-1.57,7.06-3.76.2-.24.59-.32.89-.47,0,.32.05.67-.03.97-.67,2.64-1.98,5-3.25,7.39-1.15,2.16-2.98,3.43-5,4.55-.99.55-1.92,1.25-2.97,1.65-1.32.5-2.73.76-3.94,1.09-1.47-.35-2.74-.64-4-.97-.71-.18-1.38-.48-2.09-.65-2.63-.64-4.76-2.17-6.53-4.1-1.3-1.41-2.3-3.11-3.33-4.74-.28-.44-.3-1.13-.23-1.68M79.98,153.08c1.35-1.33,3.11-1.83,5.01-1.71.32.02.73.17.91.4,1.25,1.6,2.92,2.59,4.64,3.61,1.9,1.13,3.87,1.93,6.02,2.27,1.78.28,3.6.59,5.39.5,1.91-.1,3.67-.97,5.25-2.09.72-.51,1.51-.93,2.27-1.38,1.38-.82,2.57-1.84,3.49-3.15.2-.29.36-.61.52-.92.52-1.03,1.15-1.6,2.48-1.24,2.55.69,5.28.77,7.61,2.14,1.08.64,2.04,1.52,2.95,2.4.27.26.36.97.2,1.33-.34.78-.73,1.67-1.38,2.14-1.72,1.25-3.51,2.45-5.41,3.39-1.25.62-2.75.77-4.14,1.11-2.74.67-5.47,1.41-8.24,1.97-1.65.34-3.35.39-5.02.57,0-.04,0-.09-.01-.14-2.45.12-4.89.31-7.33.34-1.15.01-2.3-.27-3.45-.45-.84-.13-1.68-.32-2.52-.47-1.56-.28-3.16-.43-4.68-.87-2.11-.61-4.25-1.34-5.62-3.21-.56-.76-.94-1.74-1.15-2.67-.42-1.88,1.14-2.8,2.21-3.86M172.44,184.43c-1.94.06-3.87.4-5.81.49-3.03.14-6.06.16-9.09.25-1.45.05-2.91.16-4.36.24-3.52.18-7.03.36-10.55.51-2.06.1-4.13.16-6.19.22-1.42.04-2.85,0-4.27.09-2.47.14-4.93.47-7.4.48-2.55.02-5.08.48-7.66.05-2.84-.48-5.73-.58-8.6-.86-1.89-.18-3.8-.3-5.67-.61-1.75-.29-3.47-.81-5.21-1.21-2.23-.51-4.48-.95-6.69-1.52-3.67-.96-7.33-1.96-10.97-3.03-1.73-.51-3.4-1.25-5.11-1.83-.82-.28-1.71-.34-2.51-.67-2.03-.83-4.02-1.76-6.03-2.64-1.28-.56-2.54-1.35-3.88-1.57-1.29-.21-2.16-1.02-3.23-1.52-.96-.46-1.76-1.24-2.65-1.86-.28-.2-.58-.39-.88-.55-1.6-.83-2.62-2.85-1.85-4.63.62-1.45,1.52-2.64,2.53-3.86,1.18-1.43,2.71-2.28,4.11-3.31,1.39-1.01,3.09-1.62,4.7-2.31,1.36-.58,2.77-1.03,4.16-1.53.09-.03.18-.05.28-.06,1.59-.26,3.19-.51,4.78-.77,1.12-.19,2.23-.4,3.35-.58.15-.03.3.03.45.05-.07.16-.12.35-.23.49-.24.29-.56.52-.78.83-.5.71-1.32,1.44-1.35,2.19-.05,1.43.16,2.88.91,4.24,1.06,1.93,2.69,3.19,4.56,4.02,1.66.73,3.53,1.03,5.34,1.39,2.4.48,4.8.94,7.22,1.21,1.35.15,2.75-.13,4.13-.15,1.16-.02,2.32.06,3.47.05,1.46-.01,2.95.08,4.38-.16,2.67-.46,5.31-1.1,7.95-1.72,2.11-.49,4.21-1.01,6.29-1.58,2.39-.66,4.36-2.08,6.14-3.74.74-.69,1.31-1.58,1.89-2.43.6-.88.22-2.79-.53-3.86-1.65-2.37-4.18-3.19-6.75-3.94-1.4-.41-2.82-.76-4.23-1.16-.21-.06-.44-.14-.58-.29-.14-.14-.22-.38-.23-.58,0-.07.29-.19.46-.21,1.66-.18,3.32-.37,4.99-.51,1.68-.14,3.36-.3,5.04-.33,2.82-.05,5.64.03,8.46-.03,2.15-.04,4.29-.25,6.43-.3,1.25-.02,2.5.15,3.75.2,1.07.05,2.15.07,3.23.08.32,0,.64-.06.96-.07.11,0,.22.04.33.07-.08.04-.15.09-.24.13-.81.36-1.64.69-2.44,1.09-.34.17-.61.48-.89.76-.58.57-1.25,1.1-1.7,1.76-1.03,1.52-1.22,3.11-.69,4.96.59,2.07,1.74,3.53,3.54,4.55.68.39,1.43.67,2.17.95,1.27.49,2.54.97,3.83,1.39.45.15.53.21.21.59-.28.34-.45.78-.75,1.1-1.51,1.56-1.21,3.22-.21,4.83.83,1.33,1.93,2.42,3.45,3.03.7.28,1.29.82,1.98,1.1,1.26.51,2.54,1,3.86,1.32,1.96.47,3.96.79,5.19,1.03,2.87,0,4.95.07,7.02-.02,2.76-.12,5.53-.3,8.28-.58,2.03-.21,4.05-.59,6.06-.97.61-.12,1.16-.55,1.77-.71,2.87-.75,5.6-1.85,8.05-3.49,1.75-1.18,3.66-2.21,4.58-4.41.97-2.29.32-5.26-1.74-6.61-.52-.34-.91-.87-1.41-1.23-1.74-1.26-3.75-1.59-5.83-1.61-.37,0-.73.21-1.1.27-.79.12-1.16-.35-.82-1.07.68-1.43,1.39-2.84,2.11-4.26.31-.63.64-.88,1.5-.66,1.21.31,2.51.3,3.77.31,1.88.01,3.76-.17,5.63-.08,1.19.06,2.42.32,3.54.72,1.31.47,2.65.54,3.99.73,1.25.17,2.46.59,3.68.93.74.21,1.45.51,2.18.72,1.16.35,2.37.58,3.51.99,1.72.64,3.45,1.31,5.09,2.14.7.35,1.13,1.2,1.74,1.75,1.35,1.21,2,2.77,2.36,4.48.09.45.08.98-.07,1.41-.6,1.74-1.63,3.21-3.06,4.38-1.84,1.5-3.59,3.13-5.56,4.46-1.59,1.07-3.42,1.82-5.18,2.63-1.2.55-2.47.95-3.71,1.39-.92.33-1.84.66-2.78.94-1.18.35-2.39.59-3.55.99-1.89.64-3.75,1.35-5.62,2.07-1.12.43-2.21.95-3.35,1.37-1.13.41-2.3.73-3.44,1.11-.81.28-1.58.71-2.4.86-1.78.32-3.65.28-5.36.79-2.37.71-4.75.39-7.12.52-2.34.13-4.7-.12-7.05-.05"/>
  <path class="cls-1" d="M100.41,122.86c-.11.71.15,1.05.73,1.22.67.2,1.02-.32,1.03-.8.03-1.62,1.05-2.78,1.85-3.98,1.36-2.04,1.68-4.39,2.5-6.5-.44-1.42-.69-2.78-1.25-3.99-.58-1.24-1.25-2.41-1.27-3.83-.01-.63-.41-.88-1.03-.83-.59.04-.97.24-.99.9-.04,1.24.16,2.38.77,3.51.61,1.12,1.14,2.35,1.39,3.59.44,2.24-.75,4.14-1.73,6-.8,1.52-1.72,2.95-1.98,4.7"/>
  <path class="cls-1" d="M95.49,110.41c1.2,1.36,1.92,2.88,1.27,4.72-.49,1.4-1.06,2.77-1.57,4.16-.13.35-.22.73-.23,1.11,0,.09.49.33.58.27.37-.29.79-.6.99-1,.77-1.57,1.57-3.13,2.16-4.77.38-1.07.54-2.31-.12-3.34-.66-1.04-1.41-2.06-2.32-2.87-1.21-1.09-2.13-2.23-2.09-3.93.03-.91.08-1.82.12-2.73.1-1.02-.17-1.38-1.02-1.16-.33.09-.66.54-.81.91-.91,2.19-.01,5.89,1.77,7.49.43.38.89.73,1.27,1.16"/>
  <path class="cls-1" d="M131.5,86.2c.23-.19.37-.27.49-.41.63-.73,1.38-1.4,1.84-2.23.21-.37.35-.65.5-.98.32-.7.73-1.72,1.07-3.03-.06-.55-.23-1.11-.17-1.64.16-1.32-.57-2.39-1.28-3.2-.87-.98-1.79-1.96-2.92-2.77-1.57-1.11-3.1-.91-4.72-.62-.93.16-1.83.69-2.74.67-1.1-.02-2.05.37-2.77.95-2.64,2.1-3.5,5.11-3.18,8.29.2,2.01.74,4.02,3.13,5.09,1.69.76,3.22,1.73,5.11,2.09,1.53.29,2.6-.55,3.87-.89.43-.29,1.05-.73,1.78-1.32M124.35,85.96c-2.07-.92-4.03-2.09-4.73-4.45-.17-.58.07-1.28.13-1.92.03-.3.13-.6.12-.9-.09-1.59.81-2.79,1.66-3.94.75-1.02,1.97-1.05,3.12-.72.65.18,1.12.13,1.64-.34,1.31-1.18,3.94-.63,4.73.91.2.38.38.83.7,1.07,1.23.93.99,2.34,1.34,3.54-.26,2.07-1.01,3.81-2.68,5.09-.29.22-.61.43-.84.71-1.41,1.63-3.46,1.74-5.2.97"/>
  <path class="cls-1" d="M153.71,82.54c.56-1.35.59-2.78.63-4.24.07-2.33-2.33-5.25-4.32-6.02-1.16-.45-2.45-.57-3.69-.79-.54-.09-1.1-.01-1.64-.09-1.58-.23-2.91.51-3.89,1.48-1.98,1.96-2.54,4.6-2.89,7.74.26.79.5,2.02,1.04,3.1,1.59,3.24,4.59,4.59,8.09,3.89,2.37-.47,4.06-1.96,5.68-3.56.42-.42.77-.96,1-1.51M151.04,82.52c-1.02,1.25-2.33,2.17-3.74,2.88-.94.47-1.92.43-3.02.18-1.49-.34-2.51-1.14-3.44-2.23-1.37-1.62-1.39-3.48-.93-5.38.36-1.47.88-2.9,2.16-3.85.45-.34,1.01-.54,1.51-.8,1.41.04,2.57.21,3.42.38,1.37.27,2.18.43,3.09,1.03.35.23,1.05.71,1.61,1.62.16.26.67,1.2.73,2.49.07,1.46-.53,2.62-1.4,3.68"/>
  <path class="cls-1" d="M143.46,98.22c-.57.44-1.26.83-1.95,1-1.5.38-2.94.86-4.25,1.7-.34.22-.8.34-1.21.36-.97.07-1.97-.06-2.93.09-1.69.27-3.13-.46-4.67-.88-.48-.13-1.25-.06-1.58.24-.43.4-.15,1.02.34,1.42.18.16.31.37.48.55.89.98,1.63,2.17,3.16,2.28.26.02.51.2.76.33,1.62.8,3.24,1.6,5.11,1.54.72-.08,1.73-.27,2.87-.7.25-.1.57-.23.91-.39,2.51-1.24,2.96-4.08,4.52-6.07.06-.07.12-.17.11-.25-.06-.39-.02-.96-.26-1.14-.36-.26-.84-.54-1.42-.09M140.22,103.15c-.5.35-.58,1.01-1.37,1.22-1.99.51-3.8.2-5.6-.62-.07-.03-.12-.11-.18-.16.08-.04.15-.11.23-.11.52,0,1.04,0,1.82,0,1.38.12,2.86-.41,4.27-1.19.05-.03.11-.08.16-.08.41-.04.82-.07,1.23-.1-.18.36-.28.84-.57,1.04"/>
  <path class="cls-1" d="M126.22,78.67c-.52-.03-1.17.72-1.16,1.28.01.64.28,1.05.75,1.07,1.05,0,1.73-.68,1.69-1.51-.04-.83-.72-.79-1.28-.83"/>
  <path class="cls-1" d="M145.89,78.44c-.5-.18-1.29.78-1.27,1.52.08.51.36.98,1.08.96.69-.01,1.6-.88,1.37-1.41-.2-.46-.71-.91-1.19-1.08"/>
</svg>